<svg width="25" height="25" viewBox="0 0 25 25" fill="none" xmlns="http://www.w3.org/2000/svg">
<g clip-path="url(#clip0_2:5)">
<path d="M20.9604 13.8469L19.4875 15.3198L21.875 17.7083H21.4771C17.9521 17.7083 15.7104 16.1125 13.7208 14.0542L13.4083 14.4167C13.0667 14.8125 12.7146 15.2198 12.3479 15.6292C13.4804 16.9405 14.8828 17.9917 16.4592 18.7108C18.0355 19.4299 19.7486 19.8001 21.4812 19.7958H21.875L19.4865 22.1844L20.9594 23.6573L24.3896 20.2271C24.7801 19.8364 24.9996 19.3066 24.9996 18.7542C24.9996 18.2017 24.7801 17.6719 24.3896 17.2812L20.9604 13.8469Z" fill="black"/>
<path d="M21.4781 7.29167H21.875L19.4875 9.68021L20.9604 11.1531L24.3906 7.72292C24.7812 7.33223 25.0006 6.80243 25.0006 6.25C25.0006 5.69757 24.7812 5.16777 24.3906 4.77708L20.9604 1.34688L19.4875 2.81979L21.875 5.20833H21.4771C16.3135 5.20833 13.4906 7.98958 10.9292 10.9146C8.39895 8.05729 5.35729 5.20833 -0.0416718 5.20833V7.29167C4.60833 7.29167 7.1177 9.725 9.55104 12.5C7.1177 15.275 4.60833 17.7083 -0.0416718 17.7083V19.7917C6.00833 19.7917 9.09999 16.2125 11.8333 13.0563C14.3896 10.0917 16.8094 7.29167 21.4781 7.29167Z" fill="black"/>
</g>
<defs>
<clipPath id="clip0_2:5">
<rect width="25" height="25" fill="white"/>
</clipPath>
</defs>
</svg>
