<svg id="Layer_1" data-name="Layer 1" xmlns="http://www.w3.org/2000/svg" viewBox="0 0 951.11 961.58"><defs><style>.cls-1{fill:#fff;}</style></defs><path class="cls-1" d="M617,575.72c-24.75-45.49-94.83-78.29-177.42-78.29s-152.67,32.8-177.41,78.29h-9.56v43.8l.44.25c6.56,59.6,87.56,106.7,186.53,106.7,103.27,0,187-51.27,187-114.52V575.72Z"/><path d="M439.56,731.71c-48.62,0-95-11.25-130.53-31.69-35-20.15-56.55-47.4-60.87-77l-.81-52.55h11.74c27.59-47,99.53-78.29,180.47-78.29S592.44,523.53,620,570.48h11.74V612c0,32.48-20.34,62.83-57.27,85.45C538.38,719.53,490.46,731.71,439.56,731.71ZM257.83,616.48l.12.07.29,2.65c6.3,57.21,85.95,102,181.32,102,100.21,0,181.73-49,181.73-109.28V581h-7.42l-1.49-2.73c-24.59-45.2-94-75.56-172.82-75.56S291.34,533,266.75,578.23L265.26,581h-7.43Z"/><ellipse class="cls-1" cx="439.56" cy="575.72" rx="186.97" ry="114.52"/><path d="M439.56,695.49c-50.89,0-98.82-12.19-134.95-34.32-36.93-22.62-57.26-53-57.26-85.45s20.33-62.83,57.26-85.44c36.13-22.13,84.06-34.32,135-34.32s98.82,12.19,135,34.32c36.93,22.61,57.27,53,57.27,85.44s-20.34,62.83-57.27,85.45C538.38,683.3,490.46,695.49,439.56,695.49Zm0-229c-100.2,0-181.73,49-181.73,109.28S339.36,685,439.56,685s181.73-49,181.73-109.28S539.77,466.44,439.56,466.44Z"/><path d="M278.13,322.7v248c0,47.8,72.28,86.54,161.43,86.54S601,618.46,601,570.66v-248Z"/><path d="M439.56,662.45c-44,0-85.38-9.23-116.62-26-32.28-17.3-50.05-40.67-50.05-65.81V317.46H606.24v253.2c0,25.14-17.78,48.51-50,65.81C525,653.22,483.53,662.45,439.56,662.45ZM283.37,327.94V570.66c0,44.83,70.07,81.3,156.19,81.3s156.19-36.47,156.19-81.3V327.94Z"/><path class="cls-1" d="M615.71,280.13c-25.81-44.32-94.92-76-176.15-76-81,0-149.93,31.54-175.92,75.65l-11,2.65v36.23c0,63.24,83.71,114.52,187,114.52s187-51.28,187-114.52V282.38Z"/><path d="M439.56,438.37c-50.89,0-98.82-12.19-134.95-34.32-36.93-22.61-57.26-53-57.26-85.44V278.25l4-1s3.32-.81,8.94-2.15c28.4-45.72,100-76.3,179.26-76.3,79.51,0,151.19,30.7,179.46,76.63l12.76,2.65v40.49c0,32.48-20.34,62.83-57.27,85.44C538.38,426.18,490.46,438.37,439.56,438.37ZM257.83,286.51v32.1c0,60.25,81.53,109.28,181.73,109.28s181.73-49,181.73-109.28v-32l-8.93-1.85-1.18-2c-25.58-43.93-94.55-73.44-171.62-73.44-76.77,0-145.65,29.36-171.4,73.06L267,284.31l-2.17.52Z"/><ellipse class="cls-1" cx="443.94" cy="278.88" rx="186.97" ry="114.52"/><path d="M319.85,334.71a3.06,3.06,0,0,0-.82,1.89,3,3,0,0,0,.58,2l1.05,1.43-.39.43-10.57-9.67.4-.43,1.52.92a3,3,0,0,0,2,.41,3,3,0,0,0,1.81-1l21.07-23a3.2,3.2,0,0,0,.89-2.35,3.15,3.15,0,0,0-1.09-2.26l-2.75-2.52.59-.64,11.1,7Z"/><path d="M401,370a3.06,3.06,0,0,0,.28,2,3,3,0,0,0,1.54,1.39l1.65.68-.11.57-14.06-2.73.11-.58h1.78a3,3,0,0,0,1.95-.72,3.07,3.07,0,0,0,1-1.79l6-30.63a3.19,3.19,0,0,0-2.57-3.82l-3.66-.71.16-.86,13.14.18Z"/><path d="M485.69,370.16a3,3,0,0,0,1,1.82,3,3,0,0,0,1.92.79l1.79.07.09.57-14.15,2.24-.09-.58,1.67-.62a3,3,0,0,0,1.59-1.34,3,3,0,0,0,.35-2L475,340.26a3.2,3.2,0,0,0-1.29-2.16,3.15,3.15,0,0,0-2.44-.55l-3.68.58-.14-.86L479.82,333Z"/><path d="M566.32,336.14a3,3,0,0,0,1.72,1.13,3,3,0,0,0,2.06-.24l1.6-.79.35.46-11.32,8.77-.35-.46,1.16-1.35a3,3,0,0,0,.75-1.94,3.08,3.08,0,0,0-.67-2L542.51,315.1a3.18,3.18,0,0,0-4.57-.58l-3,2.28-.53-.69,8.79-9.75Z"/><path d="M345.91,251.93a18.56,18.56,0,0,1,5.06,8.24,14.49,14.49,0,0,1-6.36,16.11,18.41,18.41,0,0,1-9.33,2.59,27.25,27.25,0,0,1-10.63-2,26.91,26.91,0,0,1-9.19-5.83,18.56,18.56,0,0,1-5.06-8.24,14.49,14.49,0,0,1,6.36-16.11,18.41,18.41,0,0,1,9.33-2.59,28.59,28.59,0,0,1,19.82,7.81Zm-21.14-2.2a19.91,19.91,0,0,0-8.33.33,6.47,6.47,0,0,0-3.92,10.15,20.47,20.47,0,0,0,5.93,5.93,43.47,43.47,0,0,0,18.16,7.12,19.87,19.87,0,0,0,8.32-.33,6.47,6.47,0,0,0,3.92-10.15,20.59,20.59,0,0,0-5.93-5.93,43.5,43.5,0,0,0-18.15-7.12Z"/><path d="M401.48,226.56a3.05,3.05,0,0,0,3.21,2.21l1.77-.16.17.55-13.73,4.08-.17-.56,1.58-.83a3,3,0,0,0,1.39-1.54,3,3,0,0,0,.09-2.06l-8.88-29.91a3.18,3.18,0,0,0-4.05-2.2l-3.58,1.06-.24-.84,11.72-5.91Z"/><path d="M483.1,221.44a18.57,18.57,0,0,1-7.16,6.49,14.53,14.53,0,0,1-17-3.27,18.47,18.47,0,0,1-4.27-8.7,27.16,27.16,0,0,1,0-10.82,26.87,26.87,0,0,1,4-10.1,18.5,18.5,0,0,1,7.16-6.49,14.49,14.49,0,0,1,17,3.27,18.48,18.48,0,0,1,4.27,8.69,28.71,28.71,0,0,1-4,20.93Zm-1.74-21.19a20,20,0,0,0-1.86-8.12,6.47,6.47,0,0,0-10.7-2,20.48,20.48,0,0,0-4.73,6.92,41.77,41.77,0,0,0-2.9,9.32,42.45,42.45,0,0,0-.75,9.84,20.08,20.08,0,0,0,1.86,8.12,6.49,6.49,0,0,0,10.71,2,20.65,20.65,0,0,0,4.72-6.93,41.69,41.69,0,0,0,2.9-9.31A42.49,42.49,0,0,0,481.36,200.25Z"/><path d="M542.77,272.66a18.61,18.61,0,0,1-9.55-1.49,14.53,14.53,0,0,1-8.17-15.27,18.5,18.5,0,0,1,4.07-8.79,27.26,27.26,0,0,1,8.4-6.82,27,27,0,0,1,10.39-3.23,18.51,18.51,0,0,1,9.55,1.48,14.53,14.53,0,0,1,8.17,15.27,18.48,18.48,0,0,1-4.07,8.8,28.68,28.68,0,0,1-18.79,10.05ZM558.14,258a20.05,20.05,0,0,0,5.14-6.55,6.66,6.66,0,0,0,0-6.19,6.59,6.59,0,0,0-5.21-3.38,20.63,20.63,0,0,0-8.36.69,41.57,41.57,0,0,0-9.06,3.61,42.05,42.05,0,0,0-8.12,5.61,20,20,0,0,0-5.14,6.55,6.66,6.66,0,0,0,0,6.19,6.59,6.59,0,0,0,5.21,3.38,20.8,20.8,0,0,0,8.36-.68,42.08,42.08,0,0,0,9.06-3.61A42.54,42.54,0,0,0,558.14,258Z"/><path d="M439.56,402.14c-50.89,0-98.82-12.18-134.95-34.31-36.93-22.62-57.26-53-57.26-85.45s20.33-62.83,57.26-85.45c36.13-22.13,84.06-34.31,135-34.31s98.82,12.18,135,34.31c36.93,22.62,57.27,53,57.27,85.45s-20.34,62.83-57.27,85.45C538.38,390,490.46,402.14,439.56,402.14Zm0-229c-100.2,0-181.73,49-181.73,109.28s81.53,109.28,181.73,109.28,181.73-49,181.73-109.28S539.77,173.1,439.56,173.1Z"/><path d="M439.55,239.47c-37.4,0-66.73,18.85-66.73,42.92a29,29,0,0,0,1.8,10.09,36.45,36.45,0,0,0,9,13.65c11.82,11.62,32.24,19.17,55.89,19.17s44.08-7.52,55.89-19.14a36.66,36.66,0,0,0,9.08-13.68,29.22,29.22,0,0,0,1.79-10.09C506.31,258.32,477,239.47,439.55,239.47Zm56.26,42.92a19.62,19.62,0,0,1-2.91,10.09c-7.57,12.81-28.94,22.31-53.35,22.31s-45.77-9.5-53.34-22.31a19.62,19.62,0,0,1-2.91-10.09,17.67,17.67,0,0,1,.36-3.55c3.16-16,27.46-28.89,55.89-28.89s52.69,12.88,55.89,28.85A17.22,17.22,0,0,1,495.81,282.39Z"/><path d="M492.9,292.48c-7.57,12.81-28.94,22.31-53.35,22.31s-45.77-9.5-53.34-22.31c7.54-12.81,28.92-22.34,53.34-22.34S485.35,279.67,492.9,292.48Z"/><path d="M248.18,293.64c3.82,1.2,36.65,88.14,143,98s126.68-6.54,126.68-6.54-47.11,24.27-92.07,23.56c0,0,41.4,7.16,67.8,0,0,0-9.63,31-107.41,16.4s-128.35-78.44-128.35-78.44Z"/><path d="M256.82,607.09s28.55,35.15,49.43,46.21,83.86,33.54,101.34,34.26,83.83,8.13,131.83-9.36c0,0-57.07,32.53-149.31,17.29,0,0,84.93,24.61,157-10.49,0,0-33.63,38.46-139.08,27.63,0,0,58.34,16.45,117.05-4.28,0,0-12.23,30.67-130.35,12.88s-136.31-79.89-139.17-92.38A37.44,37.44,0,0,1,256.82,607.09Z"/><path class="cls-1" d="M592.68,430.05a210.25,210.25,0,0,1-46.4,23.19,185.52,185.52,0,0,1-47.46,10.28c-15.86,1.08-31.8.33-47.39-3.35a134.07,134.07,0,0,1-44.85-19.32,174.39,174.39,0,0,0,46.06,14.5c3.91.57,7.82,1.07,11.71,1.56s7.85.56,11.76.73q2.94.12,5.88.19c2,0,3.93,0,5.89-.09,3.93-.14,7.84-.2,11.78-.62s7.85-.74,11.76-1.23,7.85-1.23,11.76-2a233.12,233.12,0,0,0,23.38-5.67A290.83,290.83,0,0,0,592.68,430.05Z"/><path class="cls-1" d="M594.23,417.61A197.76,197.76,0,0,1,558,436.66a185.79,185.79,0,0,1-37,10.67,154.12,154.12,0,0,1-37.13,2,113.33,113.33,0,0,1-36-8.35,190.48,190.48,0,0,0,37,3.38c3.09-.07,6.18-.17,9.24-.26s6.17-.44,9.24-.73c6.14-.52,12.3-1.4,18.43-2.51,3.06-.53,6.12-1.12,9.18-1.75s6.11-1.46,9.16-2.19q9.15-2.34,18.22-5.27A366.78,366.78,0,0,0,594.23,417.61Z"/><path class="cls-1" d="M440.29,468.26a158,158,0,0,1-39.47,5,179,179,0,0,1-19.88-1c-3.31-.29-6.63-.82-9.94-1.35s-6.61-1.1-9.92-1.83a193.64,193.64,0,0,1-39.39-13.23,202.41,202.41,0,0,1-38.32-23.1A313.86,313.86,0,0,0,321.71,451c6.45,2.42,12.93,4.79,19.43,6.67q4.88,1.49,9.78,2.79t9.81,2.29c6.56,1.5,13.13,2.64,19.73,3.55s13.21,1.6,19.84,2.05A310.32,310.32,0,0,0,440.29,468.26Z"/><path class="cls-1" d="M468.89,472.49A162.86,162.86,0,0,1,423,483.8a179.15,179.15,0,0,1-46.69-1.35c-3.89-.58-7.78-1.4-11.66-2.27s-7.75-1.74-11.62-2.94a202.37,202.37,0,0,1-23.06-8.3,225.17,225.17,0,0,1-45-25.81c14.86,8.16,29.86,15.47,45,20.92a243.62,243.62,0,0,0,45.92,12.05q5.78.93,11.58,1.62t11.6.95c7.74.5,15.49.52,23.25.25A242.12,242.12,0,0,0,468.89,472.49Z"/><path class="cls-1" d="M578,520.46a185.94,185.94,0,0,1-49.33,20.66,177.75,177.75,0,0,1-25.05,4.56c-4.19.54-8.36.73-12.54.85s-8.37.25-12.53,0a164.33,164.33,0,0,1-49.41-9.82q-6-2.33-12-4.88c-4-1.76-7.84-3.92-11.75-6-1.94-1.07-3.87-2.16-5.81-3.27s-3.78-2.42-5.66-3.67q-5.62-3.79-11.13-7.89,6,3.29,11.84,6.4c2,1,3.89,2.12,5.9,3s4,1.79,6,2.65c4,1.71,7.93,3.53,12,4.93s8.07,2.77,12.11,4l3,.93c1,.27,2.05.52,3.07.77,2,.52,4.07,1,6.11,1.5,4.07,1,8.12,1.88,12.25,2.43s8.19,1.24,12.29,1.72,8.24.61,12.35.77,8.24.18,12.36.11q3.09-.06,6.17-.2t6.19-.48a214.9,214.9,0,0,0,24.68-3.5A242,242,0,0,0,578,520.46Z"/><path class="cls-1" d="M461.71,542.15a120.54,120.54,0,0,1-27.66,8.16,140.81,140.81,0,0,1-28.32,2.08,135.08,135.08,0,0,1-28.49-3.81,125.87,125.87,0,0,1-28.13-10.33c9.37,2.08,18.68,4.14,28,5.4a249.38,249.38,0,0,0,28,2.41c4.69.24,9.37.16,14.06.07q3.52-.07,7-.23c2.34-.17,4.7-.29,7.05-.44C442.75,544.76,452.17,543.59,461.71,542.15Z"/><path class="cls-1" d="M489.31,543.52a126.64,126.64,0,0,1-33.78,15.55A141.8,141.8,0,0,1,384.37,562a150.89,150.89,0,0,1-17.75-4.86,170.49,170.49,0,0,1-17.51-7.27c5.87,1.4,11.72,3,17.58,4.2q4.4.9,8.79,1.66c2.94.55,5.87,1,8.8,1.35l8.8,1q4.4.35,8.79.56c5.88.41,11.73.29,17.59.14s11.72-.66,17.56-1.45c2.93-.31,5.84-.76,8.76-1.29s5.84-1,8.74-1.68A203.24,203.24,0,0,0,489.31,543.52Z"/><path class="cls-1" d="M514.35,541.4a63.45,63.45,0,0,1-8.66,8.23c-3.05,2.52-6.29,4.69-9.51,6.86-3.29,2-6.57,4-9.95,5.67q-2.53,1.27-5.07,2.5c-1.71.78-3.43,1.47-5.15,2.19a142.57,142.57,0,0,1-42.13,10.09c-3.56.37-7.12.48-10.68.5s-7.12,0-10.67-.09q-5.34-.39-10.68-1c-3.55-.4-7.1-.82-10.64-1.53A211,211,0,0,1,370,569.6c-7-2.34-14-4.91-20.92-8,7,1.72,14,3.47,21,4.94s14,2.51,21,3.38,14,1.23,21.06,1.47c3.51,0,7,0,10.52-.09s7-.22,10.5-.61,7-.66,10.49-1.09,6.95-1.16,10.43-1.84,6.92-1.52,10.37-2.41c1.73-.46,3.45-.93,5.18-1.42s3.42-1.09,5.13-1.66,3.43-1.14,5.13-1.78,3.38-1.35,5.07-2.05c3.43-1.29,6.72-3,10.08-4.6s6.62-3.52,9.84-5.58A74,74,0,0,0,514.35,541.4Z"/><path class="cls-1" d="M509.68,563.53c7.22-1.39,14.27-2.82,21.28-4.48s13.94-3.58,20.86-5.75,13.79-4.58,20.62-7.25,13.66-5.68,20.53-8.51A126.23,126.23,0,0,1,572.32,551a121.86,121.86,0,0,1-21.06,8.77,104,104,0,0,1-21,4.34A70.36,70.36,0,0,1,509.68,563.53Z"/><path class="cls-1" d="M593,550a133.73,133.73,0,0,1-24.57,15.39,129,129,0,0,1-12.53,5.37c-4.19,1.57-8.38,2.74-12.59,3.88a96.44,96.44,0,0,1-25,2.84,63.6,63.6,0,0,1-23.45-5,159.6,159.6,0,0,0,24.65-.15,176.35,176.35,0,0,0,24.56-4.26c4.09-1,8.18-2.13,12.27-3.47,4.07-1.19,8.16-2.76,12.23-4.22Q580.87,555.74,593,550Z"/><path class="cls-1" d="M593,560.74a154.24,154.24,0,0,1-29.18,17.06,151.69,151.69,0,0,1-14.86,5.77A144.9,144.9,0,0,1,534,587.42c-9.93,1.79-19.94,2.66-29.57,1.35s-19.06-4.1-26.75-9.75a90.24,90.24,0,0,0,28.18,4.72c2.41,0,4.81,0,7.21-.07s4.84-.36,7.26-.58,4.85-.58,7.27-.91,4.85-.74,7.29-1.29A198.22,198.22,0,0,0,564,572.82Q578.64,567.54,593,560.74Z"/><path class="cls-1" d="M593,572.5a160.94,160.94,0,0,1-34.61,19.12,138.34,138.34,0,0,1-35.31,9.19,117.5,117.5,0,0,1-17.56.65,94.06,94.06,0,0,1-17.17-2.31,72.59,72.59,0,0,1-30.9-15A102.81,102.81,0,0,0,490,594.24a121.57,121.57,0,0,0,17,1.1,129.24,129.24,0,0,0,17.18-1.05,149.31,149.31,0,0,0,17.25-3c5.74-1.23,11.5-2.91,17.24-4.7A253.12,253.12,0,0,0,593,572.5Z"/><path class="cls-1" d="M443.94,586.24a44.39,44.39,0,0,0,7.6,6.13c1.4.83,2.71,1.75,4.12,2.53s2.84,1.49,4.26,2.21a91.92,91.92,0,0,0,17.9,6.34,111.18,111.18,0,0,0,18.71,2.89c3.19.13,6.34.3,9.51.37s6.42-.29,9.62-.5c1.6-.09,3.2-.2,4.79-.32s3.23-.45,4.84-.69q4.83-.72,9.65-1.61c6.45-1.37,12.91-3.12,19.33-5q4.83-1.61,9.65-3.38c3.21-1.18,6.41-2.27,9.61-3.69,6.4-2.75,12.78-5.74,19.15-8.7-6.33,4.33-12.73,8.17-19.18,11.8-6.46,3.42-13,6.31-19.52,9-3.28,1.33-6.56,2.33-9.85,3.35s-6.6,2-9.9,2.8-6.59,1.26-9.9,1.81c-1.65.27-3.3.52-5,.76s-3.28.27-4.93.38a97.69,97.69,0,0,1-38.59-4.51,77.47,77.47,0,0,1-17.64-8.38q-2-1.42-4-2.88c-1.31-1-2.55-2.1-3.79-3.19A37.25,37.25,0,0,1,443.94,586.24Z"/><path class="cls-1" d="M468.89,603.17a173.68,173.68,0,0,1-46.11,10.33,185.69,185.69,0,0,1-23.35.54c-3.89-.09-7.79-.46-11.69-.87s-7.78-.86-11.68-1.56a192,192,0,0,1-46.33-14.15A210.84,210.84,0,0,1,284.92,570a279.68,279.68,0,0,0,44.95,22.58c1.89.77,3.79,1.46,5.69,2.1s3.8,1.32,5.7,2c3.81,1.27,7.63,2.5,11.45,3.47s7.66,2,11.5,2.92,7.68,1.55,11.54,2.21,7.71,1.22,11.57,1.7,7.73.83,11.61,1.09c7.75.63,15.5.66,23.28.55A269.5,269.5,0,0,0,468.89,603.17Z"/><path class="cls-1" d="M481.91,607.22a154.44,154.44,0,0,1-49.13,16.08,167.7,167.7,0,0,1-50.56.1A187.31,187.31,0,0,1,332,608.23a217.13,217.13,0,0,1-24.51-13.11c-4-2.41-8-5.23-12-8s-7.93-5.78-11.84-8.84q6,3.69,12,7.21c4,2.31,8,4.76,12.1,6.72a259.09,259.09,0,0,0,24.45,11.24q6.15,2.43,12.33,4.6,6.18,2,12.4,3.72c4.14,1.22,8.28,2.19,12.44,3s8.32,1.75,12.48,2.28,8.34,1.12,12.52,1.55,8.35.54,12.53.67,8.36.09,12.54,0,8.36-.42,12.54-.82A202.43,202.43,0,0,0,481.91,607.22Z"/><path class="cls-1" d="M497.68,609.58A162.64,162.64,0,0,1,446.89,632a160.26,160.26,0,0,1-53.11,4.44c-4.44-.26-8.91-1-13.35-1.72A132.66,132.66,0,0,1,367.11,632q-6.66-1.77-13.27-3.87c-4.41-1.35-8.79-3.24-13.16-5s-8.74-3.64-13.05-6-8.61-4.68-12.89-7.17-8.48-5.39-12.68-8.32-8.35-6-12.48-9.25q6.36,3.91,12.72,7.64c4.25,2.44,8.48,5,12.78,7a224,224,0,0,0,25.83,11.3q3.24,1.18,6.5,2.29c2.17.75,4.35,1.53,6.52,2.1q6.54,1.85,13.09,3.38c4.37,1.12,8.75,1.76,13.13,2.48s8.78,1.35,13.16,1.58,8.78.59,13.18.74q6.57,0,13.16-.33a193.86,193.86,0,0,0,26.26-3.28A203,203,0,0,0,497.68,609.58Z"/><path class="cls-1" d="M514.35,609.6a137.59,137.59,0,0,1-21.28,15.21,161.4,161.4,0,0,1-22.61,11c-3.81,1.63-7.71,2.83-11.58,4.08s-7.81,2.21-11.72,3.15q-2.94.67-5.89,1.28c-2,.33-3.95.64-5.92.93-4,.53-7.9,1.14-11.87,1.38A164.16,164.16,0,0,1,375.8,643c-7.91-1.63-15.79-4.34-23.61-7.05a229.71,229.71,0,0,1-23.25-10.64c7.76,2.67,15.53,5.4,23.32,7.57q5.83,1.56,11.7,2.87c3.9.88,7.82,1.79,11.72,2.32s7.83,1.13,11.75,1.64,7.83.66,11.74.89,7.86.47,11.76.32,7.82-.25,11.73-.49,7.8-.72,11.71-1.18q2.92-.37,5.85-.82t5.81-1.11a187.29,187.29,0,0,0,23.18-6c3.83-1.31,7.68-2.6,11.47-4.18,1.9-.76,3.8-1.55,5.71-2.35s3.76-1.73,5.65-2.61A173.73,173.73,0,0,0,514.35,609.6Z"/><path class="cls-1" d="M731.94,295.61h0c7.36,8.05,5.18,18.36-3.46,25L272.68,679.22l-61.92,43.4L268,670.21,706.57,296.06C714.2,289.46,725.14,288.16,731.94,295.61Z"/><path d="M210.52,722.76l58.79-59.82L703.84,292.87c10-8.61,23.38-8.66,31.2-.08A19.6,19.6,0,0,1,740.51,308c-.52,6-3.88,11.69-9.47,16L283.67,677.33Zm509.89-428a17.57,17.57,0,0,0-11.1,4.49L270.76,673.4l-9.57,8.75,9-6.3L725.89,317.33c3.74-2.88,6-6.46,6.27-10.1a11.45,11.45,0,0,0-3.31-8.79h0A11.12,11.12,0,0,0,720.41,294.74Z"/><ellipse cx="694.24" cy="327.72" rx="27.97" ry="7.45" transform="translate(-53.92 499.86) rotate(-38.23)"/><path class="cls-1" d="M532.09,465.82a216.78,216.78,0,0,1-60.81,30.72,196.45,196.45,0,0,1-63.23,9.63c-5.3,0-10.61-.43-15.91-.93q-4-.39-7.94-.88c-2.65-.31-5.29-.7-7.93-1.26q-7.93-1.53-15.83-3.52c-5.25-1.26-10.5-3.11-15.73-4.91q-3.91-1.38-7.82-2.87c-1.3-.5-2.6-1-3.9-1.52s-2.59-1.15-3.88-1.74Q321.36,485,313.66,481c-5.13-2.62-10.21-5.72-15.26-8.91s-10.06-6.57-15-10.11q7.54,4.37,15.15,8.43c5.07,2.68,10.15,5.41,15.27,7.56a244.57,244.57,0,0,0,30.91,11.77,222.33,222.33,0,0,0,62.75,10.09q7.88.09,15.77-.24,7.88-.54,15.75-1.5a231.71,231.71,0,0,0,31.38-6.27A256.48,256.48,0,0,0,532.09,465.82Z"/><path class="cls-1" d="M554.8,458.47c-2.33,2.61-4.82,5-7.31,7.39s-5.08,4.59-7.72,6.66c-5.2,4.31-10.6,8.08-16,11.77a202.43,202.43,0,0,1-33.49,17.59,192.74,192.74,0,0,1-69.48,14.67q-4.38.11-8.76.09c-2.92-.07-5.84-.26-8.76-.45q-8.76-.63-17.49-1.78c-5.82-.83-11.64-2.14-17.43-3.45s-11.57-2.87-17.33-4.72a285.15,285.15,0,0,1-34.22-13.95,329.94,329.94,0,0,1-33.43-19.6c11.06,6,22.23,11.63,33.51,16.55A321.45,321.45,0,0,0,351,501.32a283.41,283.41,0,0,0,34.52,7.09q8.67,1.06,17.35,1.59c2.9.17,5.8.35,8.7.39s5.78-.05,8.67-.14c5.79-.16,11.59-.38,17.37-1s11.54-1.53,17.31-2.56a214,214,0,0,0,34.32-9.42,216.84,216.84,0,0,0,33.6-15.65q4.11-2.44,8.21-5c2.75-1.68,5.38-3.64,8.09-5.48A145.8,145.8,0,0,0,554.8,458.47Z"/><path class="cls-1" d="M578,477.15A119.41,119.41,0,0,1,555.76,490a133.47,133.47,0,0,1-22.58,7.91,119.91,119.91,0,0,1-22.59,3.47,93.2,93.2,0,0,1-22.23-1.17c7.75-1.35,15.33-2.44,22.88-3.86s15-3,22.46-4.88,14.83-4,22.2-6.41S570.59,480,578,477.15Z"/><path class="cls-1" d="M578,487.2a145.45,145.45,0,0,1-28.9,15.05c-4.87,2-9.75,3.48-14.66,4.93s-9.8,2.43-14.71,3.32-9.8,1.37-14.7,1.75a129.9,129.9,0,0,1-14.63.11,112.74,112.74,0,0,1-28.66-4.85c10,.24,19.76.46,29.54-.14a235.33,235.33,0,0,0,29.16-3.32,248.19,248.19,0,0,0,28.9-6.77Q563.76,493,578,487.2Z"/><path class="cls-1" d="M578,497.94a173.58,173.58,0,0,1-35.26,17c-3,1.1-6,2-8.93,2.88s-6,1.67-9,2.37c-6,1.44-12,2.35-18,3.18a163.82,163.82,0,0,1-18,.93A142,142,0,0,1,471,523a115.21,115.21,0,0,1-34.37-10.52,200.25,200.25,0,0,0,35.44,5.6c6,.16,11.81.52,17.77.16,5.9-.11,11.84-.64,17.75-1.31s11.81-1.6,17.72-2.83c5.88-1.06,11.78-2.61,17.64-4.15A313,313,0,0,0,578,497.94Z"/><path class="cls-1" d="M578,508.7A187.22,187.22,0,0,1,535.76,528a172.32,172.32,0,0,1-43,7.85A148.77,148.77,0,0,1,450,531.65a124.66,124.66,0,0,1-40.16-18.17,170.79,170.79,0,0,0,41.43,13.38c3.53.55,7.05,1.06,10.55,1.56s7.06.65,10.59.89c1.76.12,3.52.23,5.28.31s3.54,0,5.31,0c3.55,0,7.07,0,10.62-.25s7.08-.46,10.61-.79,7.09-.86,10.62-1.4,7.07-1.16,10.59-1.87,7.06-1.53,10.57-2.39A277.55,277.55,0,0,0,578,508.7Z"/><path class="cls-1" d="M500.15,471.83a153.61,153.61,0,0,1-26.45,12.3c-4.48,1.66-9,3-13.54,4.3s-9.11,2.23-13.66,3.2A190.29,190.29,0,0,1,419,494.87c-4.59.29-9.21.18-13.81.07s-9.2-.34-13.8-.84a212.73,212.73,0,0,1-54.78-13.2,262,262,0,0,1-26.87-12.21,301,301,0,0,1-26.34-16.07c8.74,4.58,17.54,9.07,26.4,13S327.56,473,336.56,476a260.88,260.88,0,0,0,27.08,7.4q6.8,1.49,13.63,2.64t13.67,1.72c4.57.56,9.13.81,13.7,1s9.15.29,13.72.16,9.15-.22,13.72-.63,9.13-.88,13.7-1.48a224,224,0,0,0,27.31-5.62A193.68,193.68,0,0,0,500.15,471.83Z"/><path class="cls-1" d="M592.68,442.22A218.56,218.56,0,0,1,537.31,468a190.32,190.32,0,0,1-56.65,8.32,168.36,168.36,0,0,1-56.18-10.08A155.62,155.62,0,0,1,372.54,435a180.8,180.8,0,0,0,53.35,26.53,194.73,194.73,0,0,0,55.76,8.37,198.56,198.56,0,0,0,28.06-1.68A232.55,232.55,0,0,0,537.66,463,273.35,273.35,0,0,0,592.68,442.22Z"/><path class="cls-1" d="M546.76,533.62a69.61,69.61,0,0,1-9.46,11.89c-.88.91-1.74,1.83-2.63,2.71l-2.76,2.53c-1.84,1.68-3.67,3.38-5.6,4.87s-3.85,3-5.78,4.51-4,2.72-5.94,4a135.41,135.41,0,0,1-12.15,7.2,165.26,165.26,0,0,1-50.66,16.91c-4.29.71-8.61,1-12.91,1.43q-3.22.27-6.45.46c-2.15.13-4.3.26-6.46.18q-6.46-.09-12.93-.48a114.61,114.61,0,0,1-12.89-1.3,208,208,0,0,1-25.66-5.39,243.91,243.91,0,0,1-25.37-9c8.45,2.19,16.91,4.27,25.4,6,4.25.95,8.5,1.48,12.75,2.06s8.5,1.08,12.77,1.48a239.34,239.34,0,0,0,25.54.75c4.26,0,8.5-.45,12.75-.8s8.5-.8,12.72-1.52a185.16,185.16,0,0,0,25.23-5.73c2.1-.61,4.19-1.25,6.28-1.9s4.13-1.51,6.2-2.29,4.13-1.62,6.19-2.46,4.12-1.74,6.14-2.73c4.06-2,8.17-3.9,12.12-6.29q3-1.73,6-3.51,2.92-1.95,5.84-4c2-1.28,3.86-2.76,5.76-4.24l2.85-2.23c.92-.79,1.84-1.59,2.75-2.4s1.86-1.59,2.75-2.45l2.64-2.61A54,54,0,0,0,546.76,533.62Z"/><path d="M366.85,847l-7.74-3.24c18.36-43.94,58.28-79.14,104.18-91.85,12.3-3.4,25-5.31,37.3-7.16,6.69-1,13.6-2,20.32-3.3,41-7.71,75.71-24.42,100.27-48.31,28.19-27.42,42.81-65.91,38.17-100.44-5.07-37.65-34.91-70.16-69.41-75.61l1.31-8.28c38.64,6.11,70.78,40.92,76.41,82.77,5,37.12-10.58,78.34-40.64,107.58-25.74,25-61.9,42.51-104.56,50.53-6.87,1.29-13.86,2.34-20.63,3.36-12,1.8-24.5,3.67-36.3,6.94C422.05,772.05,384.24,805.39,366.85,847Z"/></svg>