<svg id="Layer_1" data-name="Layer 1" xmlns="http://www.w3.org/2000/svg" viewBox="0 0 1081.83 388.69"><defs><style>.cls-1{fill:#fff;}</style></defs><path d="M359.24,158.61a29.64,29.64,0,0,1,10.65,12.13,40.61,40.61,0,0,1,3.95,18.36,51.94,51.94,0,0,1-.26,6,40.9,40.9,0,0,1-4,14.27,31.72,31.72,0,0,1-9.38,11.53,25.36,25.36,0,0,1-14.6,5h-2a25.71,25.71,0,0,1-14.67-5,30.84,30.84,0,0,1-9.38-11.53,44.25,44.25,0,0,1-4.09-14.27q-.27-4-.27-5.76a41.21,41.21,0,0,1,4-18.56,29.39,29.39,0,0,1,10.65-12.2,28.68,28.68,0,0,1,29.49,0Zm2.81,29.82a50,50,0,0,0-4.29-21.37q-4.29-9.18-13.27-9.19t-13.26,9.19a50,50,0,0,0-4.29,21.37c0,1.88,0,3.26.13,4.15q.94,14.22,5.56,22t11.86,7.78q7.25,0,11.86-7.78t5.57-22C362,191.69,362.05,190.31,362.05,188.43Z"/><path d="M382,164c-1.38-2.1-4.09-3.19-8.11-3.28a1,1,0,0,1-.8-.34,1.14,1.14,0,0,1-.27-.73.78.78,0,0,1,.27-.54,1.09,1.09,0,0,1,.8-.27h2.28c.72,0,2.21-.06,4.49-.2s4-.29,5.16-.47a24.19,24.19,0,0,0,5.29-1.54,13.49,13.49,0,0,0,3.29-1.81,2.4,2.4,0,0,1,.94-.4.71.71,0,0,1,.8.8c0,.18-.07.85-.2,2s-.25,2.82-.34,5a17.38,17.38,0,0,1,5.23-4.15,27.57,27.57,0,0,1,9.11-3.22,27,27,0,0,1,4.56-.4,26.09,26.09,0,0,1,14.68,4.49,31.44,31.44,0,0,1,10.78,12.66,41.41,41.41,0,0,1,4,18.5l-.13,3a41.93,41.93,0,0,1-3.95,15.34,33.42,33.42,0,0,1-10.39,12.87A26.57,26.57,0,0,1,413,226.36q-1.35,0-4.29-.27a25.14,25.14,0,0,1-8.85-2.81q-3.88-2.15-4.55-3.89v37.29q0,7.9,6.16,7.91a.83.83,0,0,1,.67.33,1.15,1.15,0,0,1,.27.74c0,.53-.32.8-.94.8H377.86a1.09,1.09,0,0,1-.8-.27.76.76,0,0,1-.27-.53,1.15,1.15,0,0,1,.27-.74,1,1,0,0,1,.8-.33c2.42,0,4-.76,4.83-2.28a13.16,13.16,0,0,0,1.34-5.63V170.87A12.24,12.24,0,0,0,382,164Zm16.49,52.54a18.26,18.26,0,0,0,9.71,3.82q11.13.79,17.16-7.78t6-22.38q0-13.39-5.23-21.78T411.23,160a16,16,0,0,0-2.41.13,17.79,17.79,0,0,0-8.91,4c-2.91,2.27-4.45,4.67-4.62,7.17v39.66A8.43,8.43,0,0,0,398.44,216.51Z"/><path d="M462,189.91c0,.08,0,.35-.06.8a18.16,18.16,0,0,0-.07,1.87,45.92,45.92,0,0,0,4.42,19.3q4.43,9.66,17,10.59a16.9,16.9,0,0,0,14.81-6.23,8.82,8.82,0,0,0,2.21-5.16,2.94,2.94,0,0,0-.53-1.61,4.45,4.45,0,0,0-1-.73,2.14,2.14,0,0,0-1-.34,3.17,3.17,0,0,1-2.75-1.14,4.21,4.21,0,0,1-1.14-2.88,4.65,4.65,0,0,1,1.74-3.55,6,6,0,0,1,8.58,1.2,10.14,10.14,0,0,1,1.74,6,15.34,15.34,0,0,1-2.75,8.57,20,20,0,0,1-8,6.77A26.63,26.63,0,0,1,483.2,226q-11,0-18.23-5.1a30.49,30.49,0,0,1-10.72-13.33,46.25,46.25,0,0,1-3.48-18.16,42.86,42.86,0,0,1,3.55-17.89,28.17,28.17,0,0,1,10.45-12.33,29.71,29.71,0,0,1,16.55-4.49,27.14,27.14,0,0,1,13.07,3.28,24.06,24.06,0,0,1,9.78,10.19q3.69,6.9,3.69,17,0,1.33-.27,4.83Zm34.85-7.51q0-10.32-4.36-17a13.84,13.84,0,0,0-12.26-6.64c-4.82,0-8.62,1.64-11.39,4.89a26.32,26.32,0,0,0-5.63,11.13A37.52,37.52,0,0,0,462,185.48h34.71A26.14,26.14,0,0,0,496.87,182.4Z"/><path d="M518.71,167.12a7.07,7.07,0,0,0-1.47-4.62q-1.49-1.81-5.76-1.94a1,1,0,0,1-.81-.34,1,1,0,0,1-.27-.6q0-.81,1.08-.81h2.14a22.52,22.52,0,0,0,2.61-.26l4.09-.54a21.47,21.47,0,0,0,5.36-1.41,13.18,13.18,0,0,0,3.35-1.81,1.32,1.32,0,0,1,.94-.4.93.93,0,0,1,.54.2.5.5,0,0,1,.13.6c0,.18-.07,1-.2,2.35s-.25,3.37-.34,6q1.21-3.21,5.57-6.5t11.59-3.28a22.26,22.26,0,0,1,2.68.13,19,19,0,0,1,11.93,5.83q5.08,5.16,5.09,16v40.47a13.31,13.31,0,0,0,1.34,5.77c.8,1.52,2.41,2.27,4.82,2.27a1.1,1.1,0,0,1,.81.27.9.9,0,0,1,.27.67.78.78,0,0,1-.27.54,1.1,1.1,0,0,1-.81.27H549.54a1.1,1.1,0,0,1-.81-.27.78.78,0,0,1-.27-.54.84.84,0,0,1,.34-.67,1.15,1.15,0,0,1,.74-.27c2.41,0,4-.75,4.82-2.27a13.31,13.31,0,0,0,1.34-5.77V171.54q0-7.09-3.35-9.71a12.42,12.42,0,0,0-6.43-2.88,12.65,12.65,0,0,0-9,2.68,17,17,0,0,0-5.29,7.5,26.22,26.22,0,0,0-1.68,9.12l-.13,39.93a6.28,6.28,0,0,0,1.54,4.22,5.54,5.54,0,0,0,4.49,1.81,1.09,1.09,0,0,1,.8.27.9.9,0,0,1,.27.67.78.78,0,0,1-.27.54,1.09,1.09,0,0,1-.8.27H512.68c-.71,0-1.07-.27-1.07-.81a.83.83,0,0,1,.33-.67,1.17,1.17,0,0,1,.74-.27q5.36,0,5.9-6.16V170.47Z"/><path d="M616.41,174.63a82.48,82.48,0,0,0,11.79,6.83,123.39,123.39,0,0,1,11.73,6.3,26.43,26.43,0,0,1,7.64,7.31,18.89,18.89,0,0,1-.33,21.37,23.16,23.16,0,0,1-9.39,7.51,30.48,30.48,0,0,1-12.73,2.67,36.31,36.31,0,0,1-6.43-.66q-9-1.87-13.87-7.31a17.23,17.23,0,0,1-4.89-11.73,12.19,12.19,0,0,1,4-9.51,8.51,8.51,0,0,1,2.88-1.88,9.25,9.25,0,0,1,3.42-.67,5.87,5.87,0,0,1,4.82,2.15,4,4,0,0,1-.67,5.56,4.71,4.71,0,0,1-3.35,1.41,6,6,0,0,1-2-.54,2.27,2.27,0,0,0-2.81.54,5.8,5.8,0,0,0-1.21,4,12.62,12.62,0,0,0,3.48,8.31c2.33,2.68,5.85,4.46,10.59,5.36a22.06,22.06,0,0,0,5,.53q7.1,0,11.53-4.15A13.47,13.47,0,0,0,640,207.86a10,10,0,0,0-2.28-6.63,20.92,20.92,0,0,0-5.63-4.69q-3.35-1.93-9.38-4.76a100.54,100.54,0,0,1-11.12-5.7,24.94,24.94,0,0,1-7.24-6.63,16.05,16.05,0,0,1-3-9.78,13.43,13.43,0,0,1,5.5-11.12q5.49-4.29,14.74-4.29a25.47,25.47,0,0,1,7.44,1,51.65,51.65,0,0,1,5.56,2c1.52.67,2.5,1.1,3,1.28,1,.44,2,.87,3.21,1.27a9.63,9.63,0,0,0,3.08.6A5.39,5.39,0,0,0,646,160a1.85,1.85,0,0,1,.8-.14c.72,0,1.07.32,1.07.94a1.9,1.9,0,0,1-1.07,1.61c-.35.18-.89.49-1.61.94a9.5,9.5,0,0,0-2.41,2.55q-.27.39-2.68,4.82a35.21,35.21,0,0,1-2.28,4.29,2.64,2.64,0,0,1-2.14,1.34,1.56,1.56,0,0,1-1.41-.74,1.1,1.1,0,0,1,.07-1.4,9.16,9.16,0,0,0,1.14-3.29q.47-2.34.6-3.15a7,7,0,0,0-2.14-5.36,13.77,13.77,0,0,0-4.76-3,13.33,13.33,0,0,0-4.22-.93q-6.57-.27-9.45,2.54a8.77,8.77,0,0,0-2.88,6.43A8.55,8.55,0,0,0,616.41,174.63Z"/><path d="M697.76,158.61a29.5,29.5,0,0,1,10.65,12.13,40.48,40.48,0,0,1,4,18.36,49.32,49.32,0,0,1-.27,6,41.1,41.1,0,0,1-4,14.27,31.83,31.83,0,0,1-9.38,11.53,25.39,25.39,0,0,1-14.61,5h-2a25.71,25.71,0,0,1-14.68-5A30.93,30.93,0,0,1,658,209.4a44.25,44.25,0,0,1-4.09-14.27c-.18-2.68-.26-4.6-.26-5.76a41.2,41.2,0,0,1,4-18.56,29.46,29.46,0,0,1,10.65-12.2,28.68,28.68,0,0,1,29.49,0Zm2.81,29.82a50,50,0,0,0-4.29-21.37Q692,157.88,683,157.87t-13.27,9.19a50,50,0,0,0-4.29,21.37c0,1.88,0,3.26.13,4.15q.95,14.22,5.57,22T683,222.34q7.23,0,11.86-7.78t5.56-22C700.53,191.69,700.57,190.31,700.57,188.43Z"/><path d="M775.09,224.21a.9.9,0,0,1,.27.67.78.78,0,0,1-.27.54,1.1,1.1,0,0,1-.81.27H757v-7.24a20.67,20.67,0,0,1-5.83,5.29q-3.54,2.22-10,2.22c-.72,0-2.14-.09-4.29-.27a20.91,20.91,0,0,1-12.06-5.7q-5-4.76-5-15.48l-.13-33.64c0-.26,0-1.36.06-3.28a6.64,6.64,0,0,0-1.8-4.89,7.36,7.36,0,0,0-5.63-2,1,1,0,0,1-.81-.34,1,1,0,0,1-.27-.6.78.78,0,0,1,.27-.54,1.14,1.14,0,0,1,.81-.26h2.14a25.22,25.22,0,0,0,2.68-.27q2-.27,4.29-.54a22.29,22.29,0,0,0,5.43-1.41,13.45,13.45,0,0,0,3.41-1.8,1.19,1.19,0,0,1,1.14-.4.64.64,0,0,1,.61.66c0,.27-.14,1.46-.41,3.56s-.44,5.16-.53,9.18v40.74c0,3.3.62,5.87,1.88,7.7a10.11,10.11,0,0,0,4.15,3.76,9.8,9.8,0,0,0,3.75,1,12.67,12.67,0,0,0,9-2.68,17.58,17.58,0,0,0,5.36-7.44,24.81,24.81,0,0,0,1.74-9l-.13-31.1a35.24,35.24,0,0,0-.27-4.75,6.61,6.61,0,0,0-1.94-3.69c-1.12-1.16-2.88-1.74-5.3-1.74a1,1,0,0,1-.73-.34.89.89,0,0,1-.34-.6.78.78,0,0,1,.27-.54,1.13,1.13,0,0,1,.8-.26h2.15a25.22,25.22,0,0,0,2.68-.27q2-.27,4.29-.54a22.29,22.29,0,0,0,5.43-1.41,13.45,13.45,0,0,0,3.41-1.8,1.19,1.19,0,0,1,1.14-.4.64.64,0,0,1,.61.66c0,.36-.12,1.35-.34,2.95s-.38,3.67-.47,6.17v51.86q0,7.77,6,7.78A1.1,1.1,0,0,1,775.09,224.21Z"/><path d="M830.64,175.9a6.15,6.15,0,0,1-4.49,2.21,6,6,0,0,1-3-1,5,5,0,0,1-2.21-3.42A5.78,5.78,0,0,1,822,169.8c.09-.18.27-.55.54-1.14a4,4,0,0,0,.4-1.67,7.79,7.79,0,0,0-2.21-5.63,7.93,7.93,0,0,0-6-2.28,16.92,16.92,0,0,0-4.7.8q-12.59,4.43-13.4,22.92v33.11a13.88,13.88,0,0,0,1.34,5.82q1.21,2.36,4.69,2.35a1,1,0,0,1,.81.33,1.17,1.17,0,0,1,.27.74q0,.81-1.08.81H779.37a1.09,1.09,0,0,1-.8-.27.78.78,0,0,1-.27-.54,1.17,1.17,0,0,1,.27-.74,1,1,0,0,1,.8-.33q5.89,0,6.17-8.17V167a5.51,5.51,0,0,0-2.08-4.42c-1.29-1-4-1.52-8.11-1.61a.82.82,0,0,1-.67-.34,1.19,1.19,0,0,1-.26-.74c0-.53.31-.8.93-.8h2.28c.72,0,2.19-.09,4.42-.27s3.94-.35,5.1-.53a21.58,21.58,0,0,0,5.36-1.41,10.7,10.7,0,0,0,3.22-1.81,1.45,1.45,0,0,1,.93-.53.71.71,0,0,1,.81.8c0,.36-.07,1.18-.2,2.48s-.3,3.46-.47,6.5q1.07-2.82,6.23-5.9a22,22,0,0,1,10-3.35,14.84,14.84,0,0,1,2.28-.13,18.64,18.64,0,0,1,8.78,2.07,17,17,0,0,1,6.3,5.57,13,13,0,0,1,2.34,7.37A8.38,8.38,0,0,1,830.64,175.9Z"/><path d="M892.28,202.37a9.31,9.31,0,0,1,1.81,5.76,8.38,8.38,0,0,1-.4,2.68q-2.15,8.85-9,12a31.1,31.1,0,0,1-13,3.15q-15.27,0-24.12-9T837.4,192.72c-.09-.89-.13-2.23-.13-4a36,36,0,0,1,4.35-17.76,31.16,31.16,0,0,1,11.8-12.13,31.76,31.76,0,0,1,16.15-4.28,24,24,0,0,1,6.9.87,74.91,74.91,0,0,1,7,2.61c1.08.54,2.15,1,3.22,1.41a8.47,8.47,0,0,0,2.95.6,7.1,7.1,0,0,0,2.14-.4,1.87,1.87,0,0,1,.81-.14c.71,0,1.07.32,1.07.94s-.36,1-1.07,1.48c-.45.26-1,.62-1.68,1.07a9.18,9.18,0,0,0-2.21,2.41,36.37,36.37,0,0,0-2.55,4.69c-.26.54-.64,1.34-1.13,2.41a8.7,8.7,0,0,1-1.14,2,2.56,2.56,0,0,1-2,1.34,1.53,1.53,0,0,1-1.41-.8,1.21,1.21,0,0,1,.07-1.48,7.76,7.76,0,0,0,1.14-3.15q.46-2.34.6-3.15a7.29,7.29,0,0,0-.67-3.81,11.63,11.63,0,0,0-2.15-2.88,9.58,9.58,0,0,0-4.28-2.35,13.36,13.36,0,0,0-4.16-.47q-10.45.67-15.88,8.91t-5.43,20.57l.14,3.09q.79,14.07,5.36,21.24t9.85,9.51q5.29,2.35,5.29,1.54a14.51,14.51,0,0,0,2.41.14,18.2,18.2,0,0,0,8.38-1.81,13.56,13.56,0,0,0,5.29-4.42,9.13,9.13,0,0,0,1.75-5,4.47,4.47,0,0,0-.41-2,2,2,0,0,0-.93-.67,3.11,3.11,0,0,0-1.08-.27,3.16,3.16,0,0,1-2.74-1.14,3.69,3.69,0,0,1-1-2.88,4,4,0,0,1,1.54-3.41,5.81,5.81,0,0,1,3.55-1.14A6,6,0,0,1,892.28,202.37Z"/><path d="M907.23,189.91c0,.08,0,.35-.07.8a18.16,18.16,0,0,0-.07,1.87,46.07,46.07,0,0,0,4.42,19.3q4.43,9.66,17,10.59a16.9,16.9,0,0,0,14.81-6.23,8.87,8.87,0,0,0,2.2-5.16,2.94,2.94,0,0,0-.53-1.61,4.24,4.24,0,0,0-1-.73,2.11,2.11,0,0,0-1-.34,3.18,3.18,0,0,1-2.75-1.14,4.21,4.21,0,0,1-1.14-2.88,4.65,4.65,0,0,1,1.74-3.55,6,6,0,0,1,8.58,1.2,10.14,10.14,0,0,1,1.74,6,15.33,15.33,0,0,1-2.74,8.57,20,20,0,0,1-8,6.77A26.63,26.63,0,0,1,928.4,226q-11,0-18.23-5.1a30.56,30.56,0,0,1-10.72-13.33A46.25,46.25,0,0,1,896,189.37a42.86,42.86,0,0,1,3.55-17.89A28.23,28.23,0,0,1,910,159.15a29.74,29.74,0,0,1,16.56-4.49,27.11,27.11,0,0,1,13.06,3.28,24,24,0,0,1,9.79,10.19q3.68,6.9,3.68,17,0,1.33-.27,4.83Zm34.84-7.51q0-10.32-4.35-17a13.87,13.87,0,0,0-12.27-6.64c-4.82,0-8.62,1.64-11.39,4.89a26.43,26.43,0,0,0-5.63,11.13,37.47,37.47,0,0,0-1.2,10.65h34.71A26.59,26.59,0,0,0,942.07,182.4Z"/><path d="M450.77,270.38V247.1h16.17V250H454.11v7h12.62v2.92H454.11v10.46Z"/><path d="M491,247.1l9.82,23.28h-3.69l-2.16-5.08H483l-2.16,5.08h-3.73L487,247.1ZM489,250.57l-5,11.81h9.87Z"/><path d="M510.89,267.25l1.78-2.5a10.58,10.58,0,0,0,7.62,3.26c4.06,0,5.67-1.91,5.67-4,0-5.93-14.31-2.41-14.31-10.84,0-3.85,3.64-6.6,8.43-6.6a11.75,11.75,0,0,1,8.72,3.34l-1.74,2.33a9.6,9.6,0,0,0-7-2.79c-2.93,0-5,1.52-5,3.68,0,5,14.27,1.95,14.27,10.75,0,3.94-2.93,7-9.15,7A12.61,12.61,0,0,1,510.89,267.25Z"/><path d="M559.79,270.38v-10.5H545.86v10.5h-3.34V247.1h3.34V257h13.93V247.1h3.26v23.28Z"/><path d="M577.87,270.38V247.1h3.34v23.28Z"/><path d="M594.85,258.74c0-6.86,4.78-12.15,12-12.15s12,5.29,12,12.15-4.78,12.15-12,12.15S594.85,265.6,594.85,258.74Zm20.66,0c0-5.29-3.39-9.23-8.64-9.23s-8.64,3.94-8.64,9.23,3.39,9.23,8.64,9.23S615.51,264,615.51,258.74Z"/><path d="M649.59,270.38l-13.76-18.12v18.12h-3.3V247.1H636l13.63,17.78V247.1h3.3v23.28Z"/><path d="M702.68,270.38c-.89-.76-1.77-1.61-2.71-2.46a10.11,10.11,0,0,1-7.11,2.93c-4.4,0-7.7-2.46-7.7-6.61,0-3.64,2.5-5.5,5.33-6.94a10,10,0,0,1-1.82-5.17c0-3.21,2.75-5.54,6.27-5.54,3,0,5.63,1.56,5.63,4.7,0,3.55-3.14,5.12-6.23,6.6.85,1.06,1.82,2.12,2.8,3.13s2,2.12,2.88,3.05a20.89,20.89,0,0,0,2.54-5.29l2.49,1a29.42,29.42,0,0,1-3.26,6.05c1.49,1.4,3,2.79,4.92,4.53Zm-4.48-4.15c-1.27-1.27-2.46-2.5-3.26-3.43-1.19-1.27-2.25-2.5-3.14-3.64-2,1.14-3.55,2.54-3.55,4.87,0,2.58,2,4.49,4.91,4.49A7.25,7.25,0,0,0,698.2,266.23Zm-5.13-10.16c2.59-1.18,4.79-2.37,4.79-4.66,0-1.69-1.19-2.58-2.84-2.58a3.3,3.3,0,0,0-3.43,3.35A7.67,7.67,0,0,0,693.07,256.07Z"/><path d="M743.8,270.38V250h-7.24V247.1h17.73V250H747.1v20.36Z"/><path d="M767.08,270.38V247.1h16.17V250H770.43v7H783v2.92H770.43v7.54h12.82v2.92Z"/><path d="M813.61,270.38l-7.7-9.69-7.62,9.69h-4l9.52-11.94-9-11.34h4l7.07,9.1,7.11-9.1h4l-8.93,11.3,9.52,12Z"/><path d="M834.74,270.38V250H827.5V247.1h17.74V250H838v20.36Z"/><path d="M858,270.38V247.1h3.34v23.28Z"/><path d="M876.19,270.38V247.1h3.35v20.36H890.8v2.92Z"/><path d="M904.05,270.38V247.1h16.17V250H907.39v7H920v2.92H907.39v7.54h12.83v2.92Z"/><path d="M932.25,267.25l1.78-2.5a10.56,10.56,0,0,0,7.62,3.26c4.06,0,5.67-1.91,5.67-4,0-5.93-14.31-2.41-14.31-10.84,0-3.85,3.64-6.6,8.42-6.6a11.74,11.74,0,0,1,8.72,3.34l-1.73,2.33a9.61,9.61,0,0,0-7-2.79c-2.92,0-5,1.52-5,3.68,0,5,14.26,1.95,14.26,10.75,0,3.94-2.92,7-9.14,7A12.61,12.61,0,0,1,932.25,267.25Z"/><path class="cls-1" d="M224.34,247.33c-8.57-15.74-32.81-27.09-61.39-27.09s-52.83,11.35-61.39,27.09H98.25v15.15l.16.09c2.27,20.62,30.29,36.92,64.54,36.92,35.73,0,64.69-17.74,64.69-39.63V247.33Z"/><path d="M163,301.3c-16.82,0-32.87-3.89-45.17-11-12.12-7-19.57-16.4-21.06-26.64l-.28-18.18h4.06c9.55-16.25,34.44-27.09,62.45-27.09s52.9,10.84,62.44,27.09h4.07v14.34c0,11.24-7,21.74-19.82,29.57C197.14,297.09,180.56,301.3,163,301.3Zm-62.88-39.87,0,0,.1.91c2.18,19.8,29.74,35.31,62.74,35.31,34.67,0,62.88-17,62.88-37.82V249.14h-2.57l-.52-.94c-8.5-15.64-32.53-26.15-59.79-26.15s-51.29,10.51-59.8,26.15l-.51.94h-2.57Z"/><ellipse class="cls-1" cx="162.95" cy="247.33" rx="64.7" ry="39.63"/><path d="M163,288.77c-17.61,0-34.2-4.22-46.7-11.87-12.77-7.83-19.81-18.33-19.81-29.57s7-21.74,19.81-29.57c12.5-7.65,29.09-11.87,46.7-11.87s34.19,4.22,46.69,11.87c12.78,7.83,19.82,18.33,19.82,29.57s-7,21.74-19.82,29.57C197.14,284.55,180.56,288.77,163,288.77Zm0-79.25c-34.68,0-62.88,17-62.88,37.81s28.2,37.81,62.88,37.81,62.88-17,62.88-37.81S197.62,209.52,163,209.52Z"/><path d="M107.09,159.78v85.8c0,16.54,25,29.94,55.86,29.94s55.86-13.4,55.86-29.94v-85.8Z"/><path d="M163,277.34c-15.22,0-29.55-3.19-40.36-9-11.16-6-17.31-14.07-17.31-22.77V158H220.62v87.61c0,8.7-6.15,16.78-17.32,22.77C192.49,274.15,178.16,277.34,163,277.34Zm-54-115.75v84c0,15.51,24.25,28.13,54,28.13s54-12.62,54-28.13v-84Z"/><path class="cls-1" d="M223.9,145.05c-8.93-15.34-32.85-26.31-61-26.31s-51.88,10.91-60.87,26.17l-3.83.92v12.53c0,21.89,29,39.63,64.7,39.63s64.69-17.74,64.69-39.63V145.83Z"/><path d="M163,199.8c-17.61,0-34.2-4.21-46.7-11.87-12.77-7.83-19.81-18.33-19.81-29.57v-14l1.39-.33,3.09-.75c9.83-15.82,34.61-26.4,62-26.4s52.31,10.63,62.09,26.52l4.42.91v14c0,11.24-7,21.74-19.82,29.57C197.14,195.59,180.56,199.8,163,199.8Zm-62.88-52.54v11.1c0,20.85,28.2,37.82,62.88,37.82s62.88-17,62.88-37.82V147.3l-3.09-.64-.41-.7c-8.85-15.2-32.71-25.41-59.38-25.41s-50.4,10.16-59.31,25.28l-.39.67-.75.18Z"/><ellipse class="cls-1" cx="164.46" cy="144.62" rx="64.7" ry="39.63"/><path d="M121.53,163.94a1,1,0,0,0-.29.65,1,1,0,0,0,.2.69l.37.5-.14.15L118,162.58l.13-.15.53.32a1.05,1.05,0,0,0,1.33-.2l7.29-8a1.08,1.08,0,0,0,.31-.81,1.12,1.12,0,0,0-.38-.78l-1-.87.2-.22,3.85,2.42Z"/><path d="M149.59,176.13a1.06,1.06,0,0,0,.1.7,1,1,0,0,0,.53.49l.57.23,0,.2-4.87-.95,0-.2h.62a1,1,0,0,0,.67-.25,1,1,0,0,0,.36-.61l2.06-10.6a1.12,1.12,0,0,0-.16-.86,1.15,1.15,0,0,0-.73-.47l-1.27-.24.06-.3,4.54.06Z"/><path d="M178.91,176.2a1.08,1.08,0,0,0,.33.63,1,1,0,0,0,.67.27l.61,0,0,.2-4.89.77,0-.2.58-.21a1.08,1.08,0,0,0,.67-1.17l-1.68-10.66a1.13,1.13,0,0,0-.45-.75,1.09,1.09,0,0,0-.85-.19l-1.27.2,0-.3,4.3-1.49Z"/><path d="M206.81,164.43a1,1,0,0,0,.59.39,1.07,1.07,0,0,0,.72-.08l.55-.28.12.16-3.92,3-.12-.16.41-.47a1,1,0,0,0,.25-.67,1,1,0,0,0-.23-.67l-6.61-8.54a1.13,1.13,0,0,0-.75-.44,1.06,1.06,0,0,0-.83.24l-1,.79-.19-.24,3.05-3.38Z"/><path d="M130.54,135.29a6.44,6.44,0,0,1,1.75,2.85,5,5,0,0,1-2.2,5.58,6.27,6.27,0,0,1-3.23.89,9.5,9.5,0,0,1-3.68-.68,9.26,9.26,0,0,1-3.18-2,6.4,6.4,0,0,1-1.74-2.85,4.78,4.78,0,0,1,.17-3.14,4.84,4.84,0,0,1,2-2.43,6.43,6.43,0,0,1,3.23-.9,10,10,0,0,1,6.86,2.7Zm-7.31-.76a7,7,0,0,0-2.88.11,2.33,2.33,0,0,0-1.64,1.39,2.27,2.27,0,0,0,.28,2.13,7.12,7.12,0,0,0,2.05,2.05,14.61,14.61,0,0,0,3,1.58,14.42,14.42,0,0,0,3.3.88,7,7,0,0,0,2.88-.11,2.3,2.3,0,0,0,1.64-1.38,2.27,2.27,0,0,0-.28-2.13,7,7,0,0,0-2.05-2.05,14.64,14.64,0,0,0-3-1.59A15,15,0,0,0,123.23,134.53Z"/><path d="M149.77,126.51a1,1,0,0,0,.42.59,1,1,0,0,0,.69.18l.61-.06.06.2-4.75,1.41-.06-.2.55-.29a1,1,0,0,0,.48-.53,1.08,1.08,0,0,0,0-.71l-3.07-10.35a1.1,1.1,0,0,0-1.4-.76l-1.24.36-.09-.29,4.06-2Z"/><path d="M178,124.74a6.48,6.48,0,0,1-2.48,2.25,5,5,0,0,1-5.88-1.13,6.42,6.42,0,0,1-1.48-3,9.46,9.46,0,0,1,0-3.75,9.24,9.24,0,0,1,1.39-3.49,6.47,6.47,0,0,1,2.48-2.25,5,5,0,0,1,5.89,1.13,6.41,6.41,0,0,1,1.47,3,9.41,9.41,0,0,1,0,3.74A9.3,9.3,0,0,1,178,124.74Zm-.6-7.33a7,7,0,0,0-.64-2.81,2.25,2.25,0,0,0-3.71-.69,7.33,7.33,0,0,0-1.63,2.4,14.38,14.38,0,0,0-1,3.22,15.31,15.31,0,0,0-.26,3.41,7,7,0,0,0,.65,2.81,2.3,2.3,0,0,0,1.66,1.35,2.27,2.27,0,0,0,2-.67,7,7,0,0,0,1.64-2.39,14.44,14.44,0,0,0,1-3.23A14.65,14.65,0,0,0,177.41,117.41Z"/><path d="M198.66,142.46a6.46,6.46,0,0,1-3.31-.51,4.75,4.75,0,0,1-2.28-2.17,4.84,4.84,0,0,1-.54-3.11,6.35,6.35,0,0,1,1.41-3,9.83,9.83,0,0,1,6.5-3.47,6.44,6.44,0,0,1,3.3.51,5,5,0,0,1,2.83,5.28,6.35,6.35,0,0,1-1.41,3.05,9.89,9.89,0,0,1-6.5,3.47Zm5.32-5.08a7.07,7.07,0,0,0,1.78-2.27,2.25,2.25,0,0,0-1.8-3.31,7,7,0,0,0-2.89.24,14,14,0,0,0-3.14,1.25,14.58,14.58,0,0,0-2.81,1.94,6.94,6.94,0,0,0-1.78,2.27,2.25,2.25,0,0,0,1.8,3.31,7,7,0,0,0,2.89-.24,15.1,15.1,0,0,0,5.95-3.19Z"/><path d="M163,187.27c-17.61,0-34.2-4.22-46.7-11.88-12.77-7.82-19.81-18.32-19.81-29.56s7-21.74,19.81-29.57c12.5-7.65,29.09-11.87,46.7-11.87s34.19,4.22,46.69,11.87c12.78,7.83,19.82,18.33,19.82,29.57s-7,21.74-19.82,29.56C197.14,183.05,180.56,187.27,163,187.27ZM163,108c-34.68,0-62.88,17-62.88,37.81s28.2,37.81,62.88,37.81,62.88-17,62.88-37.81S197.62,108,163,108Z"/><path d="M162.94,131c-12.94,0-23.09,6.52-23.09,14.85a9.81,9.81,0,0,0,.63,3.49,12.53,12.53,0,0,0,3.13,4.73c4.08,4,11.15,6.63,19.33,6.63s15.26-2.6,19.34-6.62a12.6,12.6,0,0,0,3.14-4.74,10,10,0,0,0,.62-3.49C186,137.5,175.9,131,162.94,131Zm19.47,14.85a6.72,6.72,0,0,1-1,3.49c-2.62,4.43-10,7.72-18.46,7.72s-15.83-3.29-18.45-7.72a6.72,6.72,0,0,1-1-3.49,5.71,5.71,0,0,1,.13-1.23c1.09-5.53,9.5-10,19.33-10s18.24,4.46,19.34,10A5.74,5.74,0,0,1,182.41,145.83Z"/><path d="M181.4,149.32c-2.62,4.43-10,7.72-18.46,7.72s-15.83-3.29-18.45-7.72c2.61-4.43,10-7.73,18.45-7.73S178.79,144.89,181.4,149.32Z"/><path d="M96.73,149.73c1.32.41,12.68,30.49,49.48,33.91S190,181.38,190,181.38s-16.3,8.4-31.86,8.15c0,0,14.33,2.48,23.46,0,0,0-3.33,10.74-37.16,5.68s-44.41-27.14-44.41-27.14Z"/><path d="M99.72,258.18s9.87,12.16,17.1,16,29,11.61,35.07,11.86,29,2.81,45.61-3.24c0,0-19.75,11.26-51.66,6,0,0,29.38,8.52,54.32-3.63,0,0-11.63,13.31-48.12,9.56,0,0,20.19,5.7,40.5-1.48,0,0-4.23,10.61-45.1,4.46s-47.17-27.64-48.16-32A13,13,0,0,1,99.72,258.18Z"/><path class="cls-1" d="M215.93,196.92a72.77,72.77,0,0,1-16.05,8,64.4,64.4,0,0,1-16.43,3.56,55.17,55.17,0,0,1-16.4-1.16,46.61,46.61,0,0,1-15.52-6.69,60.51,60.51,0,0,0,15.94,5l4.05.54c1.36.14,2.72.19,4.08.25l2,.07,2,0c1.36,0,2.71-.06,4.07-.21s2.72-.25,4.07-.42,2.72-.43,4.07-.68a81.39,81.39,0,0,0,8.09-2A100,100,0,0,0,215.93,196.92Z"/><path class="cls-1" d="M216.46,192.62a67.52,67.52,0,0,1-12.55,6.59,63.72,63.72,0,0,1-12.79,3.69,52.9,52.9,0,0,1-12.85.7,39.28,39.28,0,0,1-12.46-2.89,66,66,0,0,0,12.79,1.17c1.07,0,2.13-.06,3.19-.09s2.14-.15,3.2-.25c2.13-.18,4.26-.49,6.38-.87,1.06-.19,2.12-.39,3.17-.61s2.12-.5,3.17-.76c2.12-.54,4.22-1.14,6.31-1.82A124.94,124.94,0,0,0,216.46,192.62Z"/><path class="cls-1" d="M163.2,210.15a54.67,54.67,0,0,1-13.66,1.74,61.07,61.07,0,0,1-6.88-.34c-1.14-.1-2.29-.28-3.44-.46s-2.28-.38-3.43-.64a67.24,67.24,0,0,1-13.63-4.57,70.45,70.45,0,0,1-13.26-8,108.7,108.7,0,0,0,13.27,6.3c2.23.84,4.47,1.66,6.72,2.31q1.7.51,3.39,1c1.12.29,2.26.55,3.39.8,2.27.51,4.54.91,6.83,1.22s4.57.56,6.86.71A106.55,106.55,0,0,0,163.2,210.15Z"/><path class="cls-1" d="M173.1,211.61a56.18,56.18,0,0,1-15.9,3.91,62.1,62.1,0,0,1-16.16-.46c-1.34-.2-2.69-.49-4-.79s-2.68-.6-4-1a68.11,68.11,0,0,1-8-2.87,77.78,77.78,0,0,1-15.57-8.93A110.73,110.73,0,0,0,125,208.69a84.67,84.67,0,0,0,15.89,4.17c1.34.21,2.67.4,4,.56s2.67.25,4,.33a80,80,0,0,0,8,.08A83.57,83.57,0,0,0,173.1,211.61Z"/><path class="cls-1" d="M210.84,228.21a64.36,64.36,0,0,1-17.07,7.14,60.76,60.76,0,0,1-8.67,1.58,42.19,42.19,0,0,1-4.34.3c-1.44,0-2.89.08-4.33,0a56.85,56.85,0,0,1-17.1-3.4c-1.39-.53-2.77-1.1-4.16-1.69s-2.71-1.35-4.06-2.07l-2-1.13c-.67-.39-1.31-.83-2-1.27-1.3-.87-2.58-1.78-3.86-2.73q2.07,1.14,4.1,2.22c.69.34,1.35.73,2,1s1.39.62,2.08.92c1.39.59,2.74,1.22,4.15,1.71s2.79,1,4.19,1.39l1,.33,1.06.26,2.12.52c1.41.33,2.81.65,4.24.84s2.83.43,4.25.6,2.85.2,4.27.26,2.85.07,4.28,0l2.14-.07,2.14-.16a76,76,0,0,0,8.54-1.22A84,84,0,0,0,210.84,228.21Z"/><path class="cls-1" d="M170.61,235.71a41.44,41.44,0,0,1-9.57,2.83,48.81,48.81,0,0,1-9.8.72,47,47,0,0,1-9.86-1.32,44,44,0,0,1-9.73-3.57c3.24.71,6.46,1.43,9.69,1.86a85.76,85.76,0,0,0,9.71.84c1.62.08,3.24.05,4.86,0,.82,0,1.63,0,2.44-.08s1.63-.1,2.44-.15C164.05,236.61,167.31,236.21,170.61,235.71Z"/><path class="cls-1" d="M180.16,236.19a43.89,43.89,0,0,1-11.69,5.38,50.86,50.86,0,0,1-30.76-.69,60.54,60.54,0,0,1-6.06-2.51c2,.48,4.06,1,6.08,1.45,1,.21,2,.4,3.05.58s2,.34,3,.46l3,.36c1,.08,2,.14,3,.19,2,.15,4.05.1,6.08.05s4.06-.23,6.08-.5q1.52-.17,3-.45c1-.17,2-.35,3-.58A70.15,70.15,0,0,0,180.16,236.19Z"/><path class="cls-1" d="M188.82,235.45a21.75,21.75,0,0,1-3,2.85c-1.06.87-2.18,1.62-3.29,2.37s-2.27,1.39-3.45,2l-1.75.86c-.59.27-1.19.51-1.78.76A49.4,49.4,0,0,1,161,247.75a35,35,0,0,1-3.69.17c-1.24,0-2.47,0-3.7,0s-2.46-.2-3.69-.34-2.46-.28-3.68-.53a70.6,70.6,0,0,1-7.33-1.81c-2.43-.81-4.85-1.7-7.24-2.77,2.42.6,4.83,1.2,7.26,1.71s4.84.87,7.28,1.17,4.85.42,7.28.51c1.22,0,2.43,0,3.64,0s2.43-.08,3.64-.22,2.42-.22,3.63-.37,2.4-.4,3.6-.64,2.4-.52,3.59-.83l1.8-.49,1.77-.58c.59-.2,1.19-.39,1.78-.61l1.75-.71c1.19-.45,2.32-1,3.49-1.59s2.29-1.22,3.4-1.94A23.49,23.49,0,0,0,188.82,235.45Z"/><path class="cls-1" d="M187.21,243.11c2.5-.48,4.94-1,7.36-1.55s4.83-1.24,7.22-2,4.77-1.58,7.13-2.51,4.73-2,7.11-2.94a44.21,44.21,0,0,1-7.14,4.66,42.2,42.2,0,0,1-7.29,3,36,36,0,0,1-7.29,1.51A24.39,24.39,0,0,1,187.21,243.11Z"/><path class="cls-1" d="M216,238.42a46.55,46.55,0,0,1-8.5,5.33,43.8,43.8,0,0,1-4.34,1.85c-1.45.55-2.9,1-4.35,1.35a33.5,33.5,0,0,1-8.65,1,21.92,21.92,0,0,1-8.11-1.71,56.32,56.32,0,0,0,8.52-.05,61.25,61.25,0,0,0,8.5-1.48c1.42-.35,2.83-.73,4.25-1.2s2.82-1,4.23-1.46Q211.84,240.41,216,238.42Z"/><path class="cls-1" d="M216,242.14a53.32,53.32,0,0,1-10.1,5.91,52.3,52.3,0,0,1-5.14,2,51,51,0,0,1-5.17,1.34,32.73,32.73,0,0,1-10.23.46,19.52,19.52,0,0,1-9.25-3.37,31,31,0,0,0,9.75,1.63c.83,0,1.66,0,2.49,0s1.68-.12,2.51-.2,1.68-.2,2.52-.32,1.68-.25,2.52-.44a67.37,67.37,0,0,0,10.08-2.8Q211.07,244.51,216,242.14Z"/><path class="cls-1" d="M216,246.22a55.54,55.54,0,0,1-12,6.61A48.08,48.08,0,0,1,191.84,256a41.37,41.37,0,0,1-6.08.23,32.79,32.79,0,0,1-5.94-.81,25,25,0,0,1-10.69-5.18,35.58,35.58,0,0,0,11.28,3.49,42.55,42.55,0,0,0,5.87.38,44.21,44.21,0,0,0,5.95-.37,49.89,49.89,0,0,0,6-1c2-.42,4-1,6-1.62A89.18,89.18,0,0,0,216,246.22Z"/><path class="cls-1" d="M164.46,251a16.07,16.07,0,0,0,2.63,2.12c.49.29.94.61,1.43.87l1.47.77a31.54,31.54,0,0,0,6.2,2.19,37.06,37.06,0,0,0,6.47,1c1.1.05,2.19.11,3.29.13s2.22-.1,3.33-.17l1.66-.11,1.67-.24c1.12-.17,2.23-.35,3.34-.56,2.23-.47,4.47-1.08,6.69-1.73,1.11-.37,2.23-.76,3.34-1.17s2.21-.79,3.32-1.28c2.22-.95,4.43-2,6.63-3-2.19,1.5-4.4,2.83-6.64,4.09s-4.49,2.18-6.75,3.11c-1.14.46-2.27.8-3.41,1.15s-2.28.7-3.43,1-2.28.44-3.42.63l-1.72.26-1.7.14a33.92,33.92,0,0,1-13.35-1.56,26.75,26.75,0,0,1-6.11-2.91l-1.39-1c-.45-.35-.88-.73-1.31-1.1A13.22,13.22,0,0,1,164.46,251Z"/><path class="cls-1" d="M173.1,256.83a60.33,60.33,0,0,1-16,3.57,64.08,64.08,0,0,1-8.08.19c-1.34,0-2.7-.16-4-.3s-2.7-.3-4-.54a66.47,66.47,0,0,1-16-4.9,73,73,0,0,1-15.5-9.49A97.1,97.1,0,0,0,125,253.17c.66.27,1.31.51,2,.73l2,.68c1.32.44,2.64.86,4,1.2s2.65.7,4,1,2.66.54,4,.76,2.67.43,4,.59,2.68.29,4,.38c2.68.22,5.36.23,8.05.19A93.9,93.9,0,0,0,173.1,256.83Z"/><path class="cls-1" d="M177.6,258.23a53.26,53.26,0,0,1-17,5.56,57.94,57.94,0,0,1-17.49,0,65.11,65.11,0,0,1-17.37-5.25,75.77,75.77,0,0,1-8.48-4.54c-1.4-.83-2.78-1.81-4.16-2.78s-2.74-2-4.09-3.06q2.07,1.28,4.16,2.5c1.4.8,2.78,1.65,4.19,2.32a86.4,86.4,0,0,0,8.46,3.89c1.42.56,2.84,1.09,4.27,1.59s2.85.89,4.28,1.29,2.87.76,4.31,1.06,2.88.6,4.32.78,2.89.39,4.33.54,2.89.19,4.34.24,2.89,0,4.34,0,2.89-.14,4.33-.28A70.35,70.35,0,0,0,177.6,258.23Z"/><path class="cls-1" d="M183.06,259a56.31,56.31,0,0,1-17.57,7.75,55.35,55.35,0,0,1-18.38,1.53,45.23,45.23,0,0,1-4.62-.59,46.5,46.5,0,0,1-4.61-.94c-1.54-.41-3.07-.85-4.59-1.34s-3-1.12-4.56-1.74-3-1.26-4.51-2.09-3-1.62-4.46-2.48-2.94-1.86-4.39-2.88-2.89-2.09-4.32-3.2q2.2,1.37,4.4,2.65c1.47.84,2.94,1.73,4.42,2.42a78.24,78.24,0,0,0,8.94,3.91c.75.27,1.5.54,2.25.79s1.51.53,2.26.73c1.5.42,3,.81,4.53,1.16s3,.62,4.54.87,3,.46,4.55.54,3,.21,4.56.26,3,0,4.56-.12a66.84,66.84,0,0,0,9.08-1.13A70.23,70.23,0,0,0,183.06,259Z"/><path class="cls-1" d="M188.82,259.05a47,47,0,0,1-7.36,5.26,55.3,55.3,0,0,1-7.82,3.82c-1.32.56-2.67,1-4,1.41s-2.7.77-4,1.09q-1,.24-2,.45l-2,.32c-1.37.18-2.73.39-4.11.48a57.09,57.09,0,0,1-16.49-1.29,65.23,65.23,0,0,1-8.18-2.44,80,80,0,0,1-8-3.68c2.69.92,5.37,1.87,8.07,2.62q2,.54,4,1c1.35.31,2.7.62,4.05.81s2.71.39,4.07.56,2.71.23,4.06.31,2.72.16,4.07.11,2.71-.08,4.06-.17,2.7-.25,4.05-.41c.68-.08,1.35-.18,2-.28l2-.39a64.8,64.8,0,0,0,8-2.08c1.32-.45,2.65-.9,4-1.45q1-.39,2-.81c.66-.28,1.3-.6,2-.9A59.8,59.8,0,0,0,188.82,259.05Z"/><path class="cls-1" d="M264.12,150.41h0c2.54,2.78,1.79,6.35-1.2,8.65L105.2,283.14l-21.42,15L103.6,280,255.34,150.56C258,148.28,261.76,147.83,264.12,150.41Z"/><path d="M83.7,298.21,104,277.51l150.35-128c3.45-3,8.09-3,10.8,0a6.79,6.79,0,0,1,1.89,5.25,7.92,7.92,0,0,1-3.28,5.53L109,282.49ZM260.13,150.1a6.12,6.12,0,0,0-3.85,1.56L104.54,281.13l-3.31,3,3.11-2.18L262,157.92a5.11,5.11,0,0,0,2.17-3.49,4,4,0,0,0-1.14-3h0A3.84,3.84,0,0,0,260.13,150.1Z"/><ellipse cx="251.07" cy="161.52" rx="9.68" ry="2.58" transform="translate(-46.1 189.99) rotate(-38.23)"/><path class="cls-1" d="M195,209.3a74.88,74.88,0,0,1-21,10.63A67.82,67.82,0,0,1,152,223.26a53.38,53.38,0,0,1-5.5-.32c-.92-.09-1.83-.19-2.75-.3s-1.83-.25-2.74-.44q-2.75-.52-5.48-1.22a55.88,55.88,0,0,1-5.44-1.7c-.91-.31-1.81-.65-2.71-1l-1.35-.52-1.34-.61q-2.69-1.22-5.35-2.6c-1.77-.9-3.53-2-5.27-3.08s-3.49-2.27-5.21-3.5q2.61,1.52,5.25,2.92c1.75.92,3.51,1.87,5.28,2.61a83.57,83.57,0,0,0,10.69,4.07,76.88,76.88,0,0,0,21.71,3.5q2.73,0,5.46-.09c1.82-.12,3.63-.29,5.45-.52a79.66,79.66,0,0,0,10.86-2.17A88.4,88.4,0,0,0,195,209.3Z"/><path class="cls-1" d="M202.82,206.76c-.8.9-1.67,1.73-2.53,2.55s-1.76,1.59-2.67,2.31c-1.8,1.49-3.67,2.8-5.54,4.07a69.6,69.6,0,0,1-11.59,6.09,66.55,66.55,0,0,1-24,5.07c-1,0-2,0-3,0s-2-.09-3-.16q-3-.21-6-.62c-2-.28-4-.73-6-1.19s-4-1-6-1.63a98.44,98.44,0,0,1-11.84-4.83,115.35,115.35,0,0,1-11.57-6.78c3.83,2.08,7.69,4,11.6,5.72a107,107,0,0,0,11.8,4.18A98.08,98.08,0,0,0,144.24,224c2,.24,4,.43,6,.55,1,.06,2,.12,3,.13s2,0,3,0c2-.06,4-.14,6-.35s4-.52,6-.88a73.23,73.23,0,0,0,11.87-3.26,75.62,75.62,0,0,0,11.63-5.41c1-.57,1.89-1.15,2.84-1.74s1.86-1.26,2.8-1.9A48.8,48.8,0,0,0,202.82,206.76Z"/><path class="cls-1" d="M210.84,213.22a42,42,0,0,1-7.69,4.45,46,46,0,0,1-7.81,2.73,40.83,40.83,0,0,1-7.81,1.2,32.42,32.42,0,0,1-7.7-.4c2.68-.47,5.31-.85,7.92-1.34s5.2-1.05,7.77-1.69,5.13-1.4,7.68-2.21S208.29,214.2,210.84,213.22Z"/><path class="cls-1" d="M210.84,216.7a50.6,50.6,0,0,1-10,5.21c-1.69.68-3.38,1.2-5.07,1.7s-3.39.84-5.09,1.15-3.39.48-5.09.61a47.49,47.49,0,0,1-5.06,0,39.33,39.33,0,0,1-9.92-1.68c3.46.08,6.84.16,10.22,0a81.79,81.79,0,0,0,10.09-1.15,86.66,86.66,0,0,0,10-2.34Q205.92,218.69,210.84,216.7Z"/><path class="cls-1" d="M210.84,220.42a60.86,60.86,0,0,1-12.2,5.88q-1.54.55-3.09,1c-1,.31-2.07.58-3.1.82-2.07.5-4.14.81-6.22,1.1a56.34,56.34,0,0,1-6.22.32,49,49,0,0,1-6.17-.44,40.26,40.26,0,0,1-11.9-3.64,69.86,69.86,0,0,0,12.27,1.94c2.06.05,4.08.17,6.14.05s4.1-.22,6.15-.45,4.08-.56,6.13-1,4.07-.91,6.1-1.44A108.87,108.87,0,0,0,210.84,220.42Z"/><path class="cls-1" d="M210.84,224.14a64.74,64.74,0,0,1-14.61,6.66,59.47,59.47,0,0,1-14.87,2.72,51.6,51.6,0,0,1-14.79-1.44,43.09,43.09,0,0,1-13.89-6.29A59,59,0,0,0,167,230.42l3.65.54c1.21.17,2.45.23,3.67.31l1.82.11,1.84,0c1.23,0,2.45,0,3.68-.09s2.45-.16,3.67-.27,2.45-.3,3.67-.49,2.45-.4,3.67-.65,2.44-.52,3.66-.82A96.92,96.92,0,0,0,210.84,224.14Z"/><path class="cls-1" d="M183.91,211.38a54,54,0,0,1-9.15,4.26c-1.55.57-3.12,1-4.69,1.49s-3.15.77-4.72,1.1a65.51,65.51,0,0,1-9.53,1.12c-1.59.1-3.18.07-4.77,0s-3.19-.12-4.78-.29a74,74,0,0,1-19-4.57,88.25,88.25,0,0,1-9.29-4.23,102.08,102.08,0,0,1-9.12-5.56c3,1.59,6.07,3.14,9.14,4.51s6.15,2.53,9.27,3.58a90.39,90.39,0,0,0,9.37,2.56c1.57.34,3.14.65,4.72.91s3.15.44,4.72.6,3.16.28,4.74.35,3.17.1,4.75,0,3.17-.07,4.75-.21,3.16-.31,4.74-.52a76.93,76.93,0,0,0,9.45-1.94A67,67,0,0,0,183.91,211.38Z"/><path class="cls-1" d="M215.93,201.14a76,76,0,0,1-19.16,8.9,65.86,65.86,0,0,1-19.6,2.88,58.21,58.21,0,0,1-19.44-3.49,53.93,53.93,0,0,1-18-10.79A63.62,63.62,0,0,0,167.82,210a64.23,64.23,0,0,0,9.69.74,70.3,70.3,0,0,0,9.71-.58,81.45,81.45,0,0,0,9.67-1.83A94.75,94.75,0,0,0,215.93,201.14Z"/><path class="cls-1" d="M200,232.76a23.63,23.63,0,0,1-3.27,4.11l-.91.94-1,.88c-.63.58-1.27,1.17-1.94,1.68s-1.33,1-2,1.56-1.37.95-2.05,1.41a47.87,47.87,0,0,1-4.21,2.49,57.06,57.06,0,0,1-17.53,5.85c-1.48.24-3,.36-4.46.49-.75.06-1.49.12-2.23.16a20.94,20.94,0,0,1-2.24.06c-1.49,0-3-.07-4.47-.16a41.84,41.84,0,0,1-4.46-.45,72.68,72.68,0,0,1-8.88-1.87,83.58,83.58,0,0,1-8.78-3.12c2.92.76,5.85,1.48,8.79,2.06,1.47.32,2.94.51,4.41.71s2.94.38,4.42.51a81.49,81.49,0,0,0,8.84.26c1.47,0,2.94-.15,4.41-.27s2.94-.28,4.4-.53a65.43,65.43,0,0,0,8.73-2l2.17-.66c.73-.22,1.43-.52,2.15-.79s1.43-.56,2.14-.86,1.42-.6,2.13-.94c1.4-.68,2.82-1.35,4.19-2.18.69-.39,1.38-.8,2.07-1.21s1.35-.91,2-1.37,1.34-1,2-1.47l1-.77.95-.83c.32-.28.65-.55,1-.85l.92-.9A19.14,19.14,0,0,0,200,232.76Z"/><path d="M137.79,341.2l-2.68-1.12a56.15,56.15,0,0,1,36-31.78,108.57,108.57,0,0,1,12.9-2.48c2.32-.34,4.71-.7,7-1.14,14.2-2.67,26.2-8.45,34.7-16.71,9.75-9.49,14.81-22.81,13.21-34.76-1.76-13-12.08-24.27-24-26.16l.45-2.87c13.38,2.12,24.49,14.16,26.44,28.64,1.73,12.85-3.66,27.11-14.06,37.23-8.91,8.66-21.42,14.71-36.18,17.48-2.38.45-4.79.81-7.14,1.16a108.22,108.22,0,0,0-12.56,2.41A53.16,53.16,0,0,0,137.79,341.2Z"/></svg>