<?xml version="1.0" encoding="UTF-8"?><svg xmlns="http://www.w3.org/2000/svg" viewBox="0 0 1019.98 126.01"><defs><style>.d{fill:#454446;}.e{letter-spacing:0em;}.f{font-family:Ubuntu-Medium, Ubuntu;font-size:60px;}</style></defs><g id="a"/><g id="b"><g id="c"><text class="f" transform="translate(86.09 88.25)"><tspan x="0" y="0">open source fashion &amp; </tspan><tspan class="e" x="628.91" y="0">t</tspan><tspan x="653.45" y="0">extiles</tspan></text><path class="d" d="M82.6,28.34c0,.61-.22,1.23-.7,1.79l-40.4,46.72,41.03,43.21c1.36,1.44,.93,3.45-.97,4.49-1.9,1.04-4.55,.72-5.91-.72l-42.73-45c-1.03-1.08-1.06-2.53-.1-3.64L74.83,26.62c1.29-1.49,3.91-1.91,5.87-.94,1.23,.61,1.9,1.62,1.91,2.66h0Z"/><path class="d" d="M946.08,122.64c.03-.61,.26-1.22,.7-1.75l37.18-44.93-32.6-44.98c-1.08-1.5-.6-4.49,1.08-5.45,1.68-.96,3.93,.48,5.01,1.98l33.95,46.85c.82,1.12,.77,2.57-.12,3.65l-38.66,46.71c-1.18,1.43-3.45,1.73-5.07,.68-1.02-.66-1.53-1.71-1.48-2.74h0Z"/><path class="d" d="M988.76,73.37c2.07,.07,4.75,2.12,5.47,3.55,1.29,2.55,2.57,3.83,3.86,5.11,2.71,2.69,4.04,3.49,7.35,3.6,3.89,.12,7.21-2.85,7.41-6.63s-2.79-6.96-6.68-7.08c-1.96-.06-3.47-1.66-3.37-3.57s1.77-3.41,3.74-3.35c7.8,.25,13.82,6.63,13.42,14.23-.4,7.6-7.08,13.57-14.88,13.32-7.21-.23-10.2-4.9-12.39-8.3-1.81-2.82-2.65-3.89-4.29-3.95-1.96-.06-1.59-6.98,.37-6.92Z"/><path class="d" d="M942.21,114.06h0c1.45,.77,3.62,.17,4.83-1.34l23.97-29.77c1.22-1.51,1.02-3.36-.43-4.12h0c-1.45-.77-3.62-.17-4.83,1.34l-23.97,29.77c-1.22,1.51-1.02,3.36,.43,4.12Z"/></g></g></svg>